# xmcd CD database file
#
# Track frame offsets:
#	150
#	18110
#	35018
#	54991
#	79478
#	98822
#	128277
#	154772
#	173865
#
# Disc length: 2557 seconds
#
# Revision: 0
# Processed by: cddbd v1.5.2PL0 Copyright (c) Steve Scherf et al.
# Submitted via: CDex 1.51
#
DISCID=6309fb09
DTITLE=Al Jarreau - This Time
DYEAR=1980
DGENRE=Jazz
TTITLE0=Never Givi' Up
TTITLE1=Gimme What You Got
TTITLE2=Love Is Real
TTITLE3=Alonzo
TTITLE4=(If I Could Only) Change Your Mind
TTITLE5=Spain (I Can Recall)
TTITLE6=Distracted
TTITLE7=Your Sweet Love
TTITLE8=(A Rhime) This Time
EXTD=YEAR: 1980
EXTT0=
EXTT1=
EXTT2=
EXTT3=
EXTT4=
EXTT5=
EXTT6=
EXTT7=
EXTT8=
PLAYORDER=
